<?xml version="1.0"?>
<svg xmlns="http://www.w3.org/2000/svg" xmlns:xlink="http://www.w3.org/1999/xlink" version="1.1" id="Capa_1" x="0px" y="0px" width="512px" height="512px" viewBox="0 0 31.334 31.334" style="enable-background:new 0 0 31.334 31.334;" xml:space="preserve" class=""><g><g>
	<path d="M15.667,0.001C7.028,0.001,0,7.029,0,15.667c0,8.639,7.028,15.666,15.667,15.666c8.64,0,15.667-7.027,15.667-15.666   C31.334,7.029,24.307,0.001,15.667,0.001z M23.048,16.065c-0.78,0.781-2.049,0.781-2.827,0l-2.554-2.551v9.133c0,1.104-0.896,2-2,2   c-1.104,0-2-0.896-2-2v-9.131l-2.552,2.551c-0.39,0.391-0.902,0.586-1.414,0.586c-0.512,0-1.024-0.195-1.414-0.586   c-0.781-0.781-0.781-2.047,0-2.828l7.381-7.381l7.379,7.379C23.828,14.018,23.828,15.285,23.048,16.065z" data-original="#000000" class="active-path" data-old_color="#000000" fill="#FFFFFF"/>
</g></g> </svg>
